<?xml version="1.0" encoding="UTF-8" standalone="no"?><svg xmlns="http://www.w3.org/2000/svg" xmlns:xlink="http://www.w3.org/1999/xlink" contentStyleType="text/css" height="275px" preserveAspectRatio="none" style="width:704px;height:275px;background:#FFFFFF;" version="1.1" viewBox="0 0 704 275" width="704px" zoomAndPan="magnify"><defs/><g><!--MD5=[ad10be5a7d7bf3639bb6361885586513]
class ST_Conveyor--><g id="elem_ST_Conveyor"><rect codeLine="2" fill="#F1F1F1" height="136.0469" id="ST_Conveyor" rx="2.5" ry="2.5" style="stroke:#181818;stroke-width:0.5;" width="202" x="7" y="7"/><ellipse cx="60.25" cy="23" fill="#F1F1F1" rx="11" ry="11" style="stroke:#181818;stroke-width:1.0;"/><path d="M58.3594,27.5625 Q58.1406,27.8281 58,27.9063 Q57.8594,27.9844 57.6719,27.9844 Q57.2813,27.9844 57.0391,27.7188 Q56.7969,27.4531 56.7969,26.8594 L56.7969,25.7031 Q56.7969,25.0938 57.0391,24.8359 Q57.2813,24.5781 57.6719,24.5781 Q57.9688,24.5781 58.1719,24.7344 Q58.375,24.8906 58.4844,25.2578 Q58.5938,25.625 58.7031,25.7656 Q58.9531,26.0156 59.5625,26.2813 Q60.1719,26.5469 60.9063,26.5469 Q62.0469,26.5469 62.7656,26.0156 Q63.2344,25.6875 63.2344,25.2188 Q63.2344,24.9063 63.0156,24.625 Q62.7969,24.3438 62.2813,24.1719 Q61.9531,24.0469 60.7969,23.8281 Q59.4063,23.5625 58.6875,23.2031 Q57.9688,22.8438 57.5547,22.1797 Q57.1406,21.5156 57.1406,20.7344 Q57.1406,19.5156 58.1641,18.6016 Q59.1875,17.6875 60.8281,17.6875 Q61.4844,17.6875 62.0391,17.8281 Q62.5938,17.9688 63.0625,18.2656 Q63.3906,17.9531 63.7188,17.9531 Q64.0938,17.9531 64.3281,18.2109 Q64.5625,18.4688 64.5625,19.0781 L64.5625,20.3594 Q64.5625,20.9688 64.3281,21.2266 Q64.0938,21.4844 63.7188,21.4844 Q63.4063,21.4844 63.1719,21.2969 Q62.9844,21.1563 62.8984,20.7344 Q62.8125,20.3125 62.6719,20.125 Q62.4219,19.8125 61.9453,19.6016 Q61.4688,19.3906 60.8281,19.3906 Q59.9063,19.3906 59.375,19.8125 Q58.8438,20.2344 58.8438,20.7031 Q58.8438,21.0156 59.0625,21.3125 Q59.2813,21.6094 59.7031,21.7813 Q59.9844,21.8906 61.2891,22.1484 Q62.5938,22.4063 63.2969,22.7109 Q64,23.0156 64.4688,23.6719 Q64.9375,24.3281 64.9375,25.2344 Q64.9375,26.5 64.0469,27.25 Q62.8594,28.25 61.0313,28.25 Q60.3281,28.25 59.6641,28.0781 Q59,27.9063 58.3594,27.5625 Z " fill="#000000"/><text fill="#000000" font-family="sans-serif" font-size="14" lengthAdjust="spacing" textLength="87" x="80.75" y="28.7285">ST_Conveyor</text><line style="stroke:#181818;stroke-width:0.5;" x1="8" x2="208" y1="39" y2="39"/><text fill="#000000" font-family="sans-serif" font-size="14" lengthAdjust="spacing" textLength="181" x="13" y="57.5332">cm01 : ST_StationConveyor;</text><text fill="#000000" font-family="sans-serif" font-size="14" lengthAdjust="spacing" textLength="181" x="13" y="75.1426">cm02 : ST_StationConveyor;</text><text fill="#000000" font-family="sans-serif" font-size="14" lengthAdjust="spacing" textLength="181" x="13" y="92.752">cm03 : ST_StationConveyor;</text><text fill="#000000" font-family="sans-serif" font-size="14" lengthAdjust="spacing" textLength="170" x="13" y="110.3613">cmOut : ST_StationOutput;</text><text fill="#000000" font-family="sans-serif" font-size="14" lengthAdjust="spacing" textLength="190" x="13" y="127.9707">cmDrive : ST_MotorConveyor;</text><line style="stroke:#181818;stroke-width:0.5;" x1="8" x2="208" y1="135.0469" y2="135.0469"/></g><!--MD5=[803d3517fe5481867eaa31ead37b49c9]
class ST_StationConveyor--><g id="elem_ST_StationConveyor"><rect codeLine="9" fill="#F1F1F1" height="100.8281" id="ST_StationConveyor" rx="2.5" ry="2.5" style="stroke:#181818;stroke-width:0.5;" width="163" x="244.5" y="24.5"/><ellipse cx="259.5" cy="40.5" fill="#F1F1F1" rx="11" ry="11" style="stroke:#181818;stroke-width:1.0;"/><path d="M257.6094,45.0625 Q257.3906,45.3281 257.25,45.4063 Q257.1094,45.4844 256.9219,45.4844 Q256.5313,45.4844 256.2891,45.2188 Q256.0469,44.9531 256.0469,44.3594 L256.0469,43.2031 Q256.0469,42.5938 256.2891,42.3359 Q256.5313,42.0781 256.9219,42.0781 Q257.2188,42.0781 257.4219,42.2344 Q257.625,42.3906 257.7344,42.7578 Q257.8438,43.125 257.9531,43.2656 Q258.2031,43.5156 258.8125,43.7813 Q259.4219,44.0469 260.1563,44.0469 Q261.2969,44.0469 262.0156,43.5156 Q262.4844,43.1875 262.4844,42.7188 Q262.4844,42.4063 262.2656,42.125 Q262.0469,41.8438 261.5313,41.6719 Q261.2031,41.5469 260.0469,41.3281 Q258.6563,41.0625 257.9375,40.7031 Q257.2188,40.3438 256.8047,39.6797 Q256.3906,39.0156 256.3906,38.2344 Q256.3906,37.0156 257.4141,36.1016 Q258.4375,35.1875 260.0781,35.1875 Q260.7344,35.1875 261.2891,35.3281 Q261.8438,35.4688 262.3125,35.7656 Q262.6406,35.4531 262.9688,35.4531 Q263.3438,35.4531 263.5781,35.7109 Q263.8125,35.9688 263.8125,36.5781 L263.8125,37.8594 Q263.8125,38.4688 263.5781,38.7266 Q263.3438,38.9844 262.9688,38.9844 Q262.6563,38.9844 262.4219,38.7969 Q262.2344,38.6563 262.1484,38.2344 Q262.0625,37.8125 261.9219,37.625 Q261.6719,37.3125 261.1953,37.1016 Q260.7188,36.8906 260.0781,36.8906 Q259.1563,36.8906 258.625,37.3125 Q258.0938,37.7344 258.0938,38.2031 Q258.0938,38.5156 258.3125,38.8125 Q258.5313,39.1094 258.9531,39.2813 Q259.2344,39.3906 260.5391,39.6484 Q261.8438,39.9063 262.5469,40.2109 Q263.25,40.5156 263.7188,41.1719 Q264.1875,41.8281 264.1875,42.7344 Q264.1875,44 263.2969,44.75 Q262.1094,45.75 260.2813,45.75 Q259.5781,45.75 258.9141,45.5781 Q258.25,45.4063 257.6094,45.0625 Z " fill="#000000"/><text fill="#000000" font-family="sans-serif" font-size="14" lengthAdjust="spacing" textLength="131" x="273.5" y="46.2285">ST_StationConveyor</text><line style="stroke:#181818;stroke-width:0.5;" x1="245.5" x2="406.5" y1="56.5" y2="56.5"/><text fill="#000000" font-family="sans-serif" font-size="14" lengthAdjust="spacing" textLength="104" x="250.5" y="75.0332">bButton : BOOL;</text><text fill="#000000" font-family="sans-serif" font-size="14" lengthAdjust="spacing" textLength="99" x="250.5" y="92.6426">bLed    : BOOL;</text><text fill="#000000" font-family="sans-serif" font-size="14" lengthAdjust="spacing" textLength="108" x="250.5" y="110.252">bSensor : BOOL;</text><line style="stroke:#181818;stroke-width:0.5;" x1="245.5" x2="406.5" y1="117.3281" y2="117.3281"/></g><!--MD5=[9c19444efaa7467f53c65a2e51410ef7]
class ST_StationOutput--><g id="elem_ST_StationOutput"><rect codeLine="14" fill="#F1F1F1" height="65.6094" id="ST_StationOutput" rx="2.5" ry="2.5" style="stroke:#181818;stroke-width:0.5;" width="145" x="253.5" y="203"/><ellipse cx="268.5" cy="219" fill="#F1F1F1" rx="11" ry="11" style="stroke:#181818;stroke-width:1.0;"/><path d="M266.6094,223.5625 Q266.3906,223.8281 266.25,223.9063 Q266.1094,223.9844 265.9219,223.9844 Q265.5313,223.9844 265.2891,223.7188 Q265.0469,223.4531 265.0469,222.8594 L265.0469,221.7031 Q265.0469,221.0938 265.2891,220.8359 Q265.5313,220.5781 265.9219,220.5781 Q266.2188,220.5781 266.4219,220.7344 Q266.625,220.8906 266.7344,221.2578 Q266.8438,221.625 266.9531,221.7656 Q267.2031,222.0156 267.8125,222.2813 Q268.4219,222.5469 269.1563,222.5469 Q270.2969,222.5469 271.0156,222.0156 Q271.4844,221.6875 271.4844,221.2188 Q271.4844,220.9063 271.2656,220.625 Q271.0469,220.3438 270.5313,220.1719 Q270.2031,220.0469 269.0469,219.8281 Q267.6563,219.5625 266.9375,219.2031 Q266.2188,218.8438 265.8047,218.1797 Q265.3906,217.5156 265.3906,216.7344 Q265.3906,215.5156 266.4141,214.6016 Q267.4375,213.6875 269.0781,213.6875 Q269.7344,213.6875 270.2891,213.8281 Q270.8438,213.9688 271.3125,214.2656 Q271.6406,213.9531 271.9688,213.9531 Q272.3438,213.9531 272.5781,214.2109 Q272.8125,214.4688 272.8125,215.0781 L272.8125,216.3594 Q272.8125,216.9688 272.5781,217.2266 Q272.3438,217.4844 271.9688,217.4844 Q271.6563,217.4844 271.4219,217.2969 Q271.2344,217.1563 271.1484,216.7344 Q271.0625,216.3125 270.9219,216.125 Q270.6719,215.8125 270.1953,215.6016 Q269.7188,215.3906 269.0781,215.3906 Q268.1563,215.3906 267.625,215.8125 Q267.0938,216.2344 267.0938,216.7031 Q267.0938,217.0156 267.3125,217.3125 Q267.5313,217.6094 267.9531,217.7813 Q268.2344,217.8906 269.5391,218.1484 Q270.8438,218.4063 271.5469,218.7109 Q272.25,219.0156 272.7188,219.6719 Q273.1875,220.3281 273.1875,221.2344 Q273.1875,222.5 272.2969,223.25 Q271.1094,224.25 269.2813,224.25 Q268.5781,224.25 267.9141,224.0781 Q267.25,223.9063 266.6094,223.5625 Z " fill="#000000"/><text fill="#000000" font-family="sans-serif" font-size="14" lengthAdjust="spacing" textLength="113" x="282.5" y="224.7285">ST_StationOutput</text><line style="stroke:#181818;stroke-width:0.5;" x1="254.5" x2="397.5" y1="235" y2="235"/><text fill="#000000" font-family="sans-serif" font-size="14" lengthAdjust="spacing" textLength="105" x="259.5" y="253.5332">bBuzzer : BOOL;</text><line style="stroke:#181818;stroke-width:0.5;" x1="254.5" x2="397.5" y1="260.6094" y2="260.6094"/></g><!--MD5=[b012a3e18a80c84005e012e2243dacd2]
class ST_MotorConveyor--><g id="elem_ST_MotorConveyor"><rect codeLine="17" fill="#F1F1F1" height="83.2188" id="ST_MotorConveyor" rx="2.5" ry="2.5" style="stroke:#181818;stroke-width:0.5;" width="255" x="442.5" y="33.5"/><ellipse cx="504.25" cy="49.5" fill="#F1F1F1" rx="11" ry="11" style="stroke:#181818;stroke-width:1.0;"/><path d="M502.3594,54.0625 Q502.1406,54.3281 502,54.4063 Q501.8594,54.4844 501.6719,54.4844 Q501.2813,54.4844 501.0391,54.2188 Q500.7969,53.9531 500.7969,53.3594 L500.7969,52.2031 Q500.7969,51.5938 501.0391,51.3359 Q501.2813,51.0781 501.6719,51.0781 Q501.9688,51.0781 502.1719,51.2344 Q502.375,51.3906 502.4844,51.7578 Q502.5938,52.125 502.7031,52.2656 Q502.9531,52.5156 503.5625,52.7813 Q504.1719,53.0469 504.9063,53.0469 Q506.0469,53.0469 506.7656,52.5156 Q507.2344,52.1875 507.2344,51.7188 Q507.2344,51.4063 507.0156,51.125 Q506.7969,50.8438 506.2813,50.6719 Q505.9531,50.5469 504.7969,50.3281 Q503.4063,50.0625 502.6875,49.7031 Q501.9688,49.3438 501.5547,48.6797 Q501.1406,48.0156 501.1406,47.2344 Q501.1406,46.0156 502.1641,45.1016 Q503.1875,44.1875 504.8281,44.1875 Q505.4844,44.1875 506.0391,44.3281 Q506.5938,44.4688 507.0625,44.7656 Q507.3906,44.4531 507.7188,44.4531 Q508.0938,44.4531 508.3281,44.7109 Q508.5625,44.9688 508.5625,45.5781 L508.5625,46.8594 Q508.5625,47.4688 508.3281,47.7266 Q508.0938,47.9844 507.7188,47.9844 Q507.4063,47.9844 507.1719,47.7969 Q506.9844,47.6563 506.8984,47.2344 Q506.8125,46.8125 506.6719,46.625 Q506.4219,46.3125 505.9453,46.1016 Q505.4688,45.8906 504.8281,45.8906 Q503.9063,45.8906 503.375,46.3125 Q502.8438,46.7344 502.8438,47.2031 Q502.8438,47.5156 503.0625,47.8125 Q503.2813,48.1094 503.7031,48.2813 Q503.9844,48.3906 505.2891,48.6484 Q506.5938,48.9063 507.2969,49.2109 Q508,49.5156 508.4688,50.1719 Q508.9375,50.8281 508.9375,51.7344 Q508.9375,53 508.0469,53.75 Q506.8594,54.75 505.0313,54.75 Q504.3281,54.75 503.6641,54.5781 Q503,54.4063 502.3594,54.0625 Z " fill="#000000"/><text fill="#000000" font-family="sans-serif" font-size="14" lengthAdjust="spacing" textLength="123" x="524.75" y="55.2285">ST_MotorConveyor</text><line style="stroke:#181818;stroke-width:0.5;" x1="443.5" x2="696.5" y1="65.5" y2="65.5"/><text fill="#000000" font-family="sans-serif" font-size="14" lengthAdjust="spacing" textLength="180" x="448.5" y="84.0332">bK_ActivatePositiveDirection</text><text fill="#000000" font-family="sans-serif" font-size="14" lengthAdjust="spacing" textLength="51" x="640.5" y="84.0332">: BOOL;</text><text fill="#000000" font-family="sans-serif" font-size="14" lengthAdjust="spacing" textLength="186" x="448.5" y="101.6426">bK_ActivateNegativeDirection</text><text fill="#000000" font-family="sans-serif" font-size="14" lengthAdjust="spacing" textLength="51" x="640.5" y="101.6426">: BOOL;</text><line style="stroke:#181818;stroke-width:0.5;" x1="443.5" x2="696.5" y1="108.7188" y2="108.7188"/></g><!--MD5=[dfcaa1a044812d578db031cf4b0157d0]
reverse link ST_StationConveyor to ST_StationOutput--><g id="link_ST_StationConveyor_ST_StationOutput"><path codeLine="21" d="M326,146.02 C326,165.84 326,186.45 326,202.84 " fill="none" id="ST_StationConveyor-backto-ST_StationOutput" style="stroke:#181818;stroke-width:1.0;"/><polygon fill="none" points="319,145.87,326,125.87,333,145.87,319,145.87" style="stroke:#181818;stroke-width:1.0;"/></g><!--MD5=[55fac90cfacdf41bc0a5ac86ad3f34df]
@startuml
struct ST_Conveyor
ST_Conveyor : cm01 : ST_StationConveyor;
ST_Conveyor : cm02 : ST_StationConveyor;
ST_Conveyor : cm03 : ST_StationConveyor;
ST_Conveyor : cmOut : ST_StationOutput;
ST_Conveyor : cmDrive : ST_MotorConveyor;

struct ST_StationConveyor
ST_StationConveyor : bButton : BOOL;
ST_StationConveyor : bLed    : BOOL;
ST_StationConveyor : bSensor : BOOL;

struct ST_StationOutput
ST_StationOutput : bBuzzer : BOOL;

struct ST_MotorConveyor
ST_MotorConveyor : bK_ActivatePositiveDirection	: BOOL;
ST_MotorConveyor : bK_ActivateNegativeDirection	: BOOL;

ST_StationConveyor <|- -  ST_StationOutput

@enduml

PlantUML version 1.2022.7(Mon Aug 22 19:01:30 CEST 2022)
(GPL source distribution)
Java Runtime: Java(TM) SE Runtime Environment
JVM: Java HotSpot(TM) 64-Bit Server VM
Default Encoding: Cp1252
Language: en
Country: US
--></g></svg>